<?xml version="1.0" encoding="UTF-8" standalone="no"?>
<svg
   version="1.0"
   width="1109.000000pt"
   height="721.000000pt"
   viewBox="0 0 1109.000000 721.000000"
   preserveAspectRatio="xMidYMid meet"
   id="svg103"
   sodipodi:docname="pokemon_landing_image.svg"
   inkscape:version="1.2.1 (9c6d41e, 2022-07-14)"
   xmlns:inkscape="http://www.inkscape.org/namespaces/inkscape"
   xmlns:sodipodi="http://sodipodi.sourceforge.net/DTD/sodipodi-0.dtd"
   xmlns="http://www.w3.org/2000/svg"
   xmlns:svg="http://www.w3.org/2000/svg">
  <defs
     id="defs107" />
  <sodipodi:namedview
     id="namedview105"
     pagecolor="#ffffff"
     bordercolor="#666666"
     borderopacity="1.0"
     inkscape:showpageshadow="2"
     inkscape:pageopacity="0.0"
     inkscape:pagecheckerboard="0"
     inkscape:deskcolor="#d1d1d1"
     inkscape:document-units="pt"
     showgrid="false"
     inkscape:zoom="0.83945908"
     inkscape:cx="739.76208"
     inkscape:cy="480.66667"
     inkscape:window-width="1920"
     inkscape:window-height="1027"
     inkscape:window-x="1221"
     inkscape:window-y="25"
     inkscape:window-maximized="1"
     inkscape:current-layer="svg103" />
  <g
     transform="translate(0.000000,721.000000) scale(0.100000,-0.100000)"
     fill="#000000"
     stroke="none"
     id="g101">
    <path
       d="M7475 7195 c-589 -62 -1078 -258 -1520 -612 -231 -184 -280 -272 -306 -553 -15 -160 -15 -696 0 -910 12 -163 37 -411 47 -461 4 -23 -6 -34 -113 -114 -108 -81 -358 -282 -442 -355 -19 -16 -32 -33 -28 -36 4 -4 80 7 169 24 90 16 164 29 165 28 2 -1 -57 -52 -130 -113 -72 -60 -164 -140 -203 -177 -40 -36 -76 -66 -80 -66 -5 1 -29 44 -54 97 -50 108 -142 253 -188 296 l-30 29 64 103 c288 471 510 1130 579 1720 27 228 18 655 -14 713 -11 19 -96 -54 -232 -195 -357 -374 -682 -952 -834 -1486 -39 -138 -81 -340 -90 -437 -9 -94 -4 -90 -88 -70 -240 57 -555 49 -822 -20 -146 -39 -229 -70 -390 -150 -180 -90 -298 -170 -431 -294 l-91 -85 -89 76 c-566 479 -1391 921 -2011 1077 -142 35 -300 63 -309 53 -7 -7 50 -129 120 -257 240 -436 595 -833 1010 -1128 225 -160 516 -320 791 -433 l140 -58 -2 -38 c-2 -21 -4 -110 -5 -198 -3 -248 30 -397 151 -700 104 -259 134 -361 190 -654 22 -118 53 -188 112 -255 115 -130 406 -274 714 -351 126 -32 337 -65 414 -65 35 0 42 -6 86 -61 146 -186 419 -414 695 -579 143 -86 400 -210 545 -264 95 -35 119 -48 117 -62 -18 -91 -29 -170 -26 -173 11 -11 22 20 33 89 24 151 35 169 80 133 21 -18 22 -20 8 -83 -8 -36 -17 -82 -20 -103 l-6 -37 710 2 710 3 28 65 c75 178 246 357 428 449 92 47 203 83 208 68 6 -17 33 -275 40 -377 3 -47 8 -113 11 -148 l6 -62 218 0 219 0 30 93 c41 129 96 322 111 387 12 56 12 56 69 76 55 20 57 20 108 3 150 -51 311 -176 391 -302 39 -63 92 -183 92 -210 0 -50 -76 -47 1151 -47 l1138 0 -15 50 c-41 137 -134 315 -210 400 -24 26 -44 51 -44 56 0 4 18 29 40 55 22 26 36 50 31 53 -5 4 -29 -16 -53 -44 l-43 -50 -167 70 c-92 39 -172 70 -178 70 -7 0 -9 8 -4 23 11 34 72 167 77 167 36 0 385 -137 440 -172 109 -70 241 -300 329 -575 18 -56 38 -103 45 -103 15 0 -4 66 -62 216 -79 202 -186 389 -258 450 -38 32 -141 84 -232 117 -190 68 -180 62 -193 112 -10 38 -20 51 -56 73 -37 22 -48 37 -66 84 -24 65 -49 89 -126 117 -85 32 -470 125 -710 172 -120 23 -222 45 -226 48 -3 3 0 58 8 121 34 272 45 428 35 466 -6 21 -9 40 -7 42 3 3 182 -26 269 -44 15 -3 27 -1 27 4 0 6 -40 81 -89 168 -49 88 -87 162 -83 165 6 5 554 267 841 401 71 33 101 52 92 58 -8 4 -74 11 -147 15 -74 4 -136 10 -138 14 -2 3 207 121 465 261 258 140 469 260 469 266 0 39 -456 520 -647 682 -57 48 -103 90 -103 93 0 4 78 10 174 14 95 4 189 10 207 14 l34 7 -85 56 c-81 52 -177 108 -460 266 l-125 69 4 209 c2 115 4 210 6 212 7 8 327 22 528 22 159 0 237 3 237 11 0 5 56 337 125 737 69 400 125 736 125 746 0 18 -9 19 -177 13 -203 -7 -444 -39 -693 -94 -91 -20 -175 -38 -186 -40 -19 -4 -28 6 -60 67 -48 91 -129 174 -276 282 -378 280 -758 426 -1278 494 -172 22 -586 27 -755 9z m585 -621 c52 -9 142 -31 199 -50 491 -162 790 -558 818 -1082 l6 -115 -24 6 c-52 13 -272 47 -424 67 -88 11 -179 23 -202 26 l-43 5 0 52 c0 130 -67 303 -155 404 -200 228 -639 260 -882 64 -107 -86 -200 -273 -219 -440 -4 -34 -12 -64 -18 -66 -6 -2 -65 -9 -131 -15 -113 -11 -360 -43 -433 -56 l-33 -6 6 63 c57 544 342 942 780 1088 233 77 497 97 755 55z m2816 -141 c-3 -16 -53 -305 -111 -643 -119 -695 -135 -782 -144 -791 -3 -4 -171 -9 -373 -11 l-367 -5 6 331 c7 463 -12 822 -52 977 l-6 26 138 31 c289 65 605 109 806 111 l109 1 -6 -27z m-5987 -385 c118 -118 234 -286 336 -489 43 -84 43 -80 -16 -267 -93 -291 -275 -701 -402 -902 -43 -68 -58 -85 -75 -83 -12 2 -22 0 -22 -3 0 -4 26 -34 57 -68 72 -77 129 -167 195 -301 l51 -106 -128 -129 c-124 -124 -128 -129 -104 -139 97 -37 143 -58 257 -115 l130 -65 64 -193 c36 -106 77 -223 91 -261 l27 -68 -27 14 c-77 39 -138 28 -212 -39 -57 -52 -110 -149 -138 -254 -23 -89 -23 -275 0 -351 45 -149 165 -234 260 -185 33 18 33 14 5 -33 -112 -185 -332 -405 -553 -553 -514 -345 -1150 -389 -1781 -123 l-90 38 42 43 c49 49 64 91 64 185 0 238 -221 503 -420 504 -39 0 -66 -7 -92 -22 l-36 -21 -27 96 c-15 54 -60 178 -100 277 -127 316 -154 426 -162 668 -7 201 10 325 62 450 5 12 3 17 -8 17 -9 0 -23 -25 -37 -71 -27 -84 -11 -84 -211 2 -347 148 -647 325 -912 538 -177 143 -162 115 -160 300 1 152 19 308 49 441 27 118 55 200 67 200 24 0 481 -235 622 -320 305 -182 622 -408 807 -575 l38 -35 -45 -58 c-42 -53 -56 -83 -37 -81 4 0 39 41 77 92 193 252 552 474 920 570 288 75 564 84 820 25 50 -11 104 -22 120 -25 27 -4 28 -3 13 10 -23 18 -22 44 2 196 53 321 155 627 322 961 88 178 204 380 217 380 4 0 40 -32 80 -72z m3091 -924 c491 -57 1065 -227 1613 -479 81 -37 150 -72 153 -77 7 -11 -95 -138 -190 -236 -155 -159 -196 -166 -436 -77 -539 200 -781 265 -1135 306 -140 17 -497 17 -640 0 -295 -33 -612 -104 -933 -206 -112 -35 -190 -55 -222 -55 -86 0 -223 86 -385 242 -93 89 -100 71 64 169 377 226 918 379 1491 422 140 11 497 6 620 -9z m-680 -601 c0 -5 -7 -53 -15 -108 -8 -55 -15 -103 -15 -108 0 -4 -35 19 -77 51 -43 33 -99 71 -125 86 -27 16 -48 31 -48 35 0 6 99 24 273 50 4 1 7 -2 7 -6z m1040 -48 c36 -9 71 -18 79 -21 9 -3 -16 -22 -62 -48 -42 -24 -107 -67 -144 -94 -69 -51 -164 -142 -149 -142 4 0 47 24 96 54 95 59 229 128 329 171 l64 27 101 -32 c56 -18 211 -73 346 -123 209 -77 257 -91 325 -96 l80 -6 20 -55 c18 -51 20 -79 19 -365 0 -245 -4 -328 -17 -395 -9 -47 -13 -88 -8 -93 5 -5 39 25 76 65 l67 73 -33 -62 -34 -61 28 -27 c38 -39 53 -95 39 -144 -17 -54 -81 -122 -151 -160 -61 -32 -77 -51 -43 -51 31 0 118 58 165 110 45 50 67 99 67 150 0 24 -28 89 -51 121 -10 13 -1 38 51 135 34 66 75 136 90 157 l28 38 38 -47 39 -47 2 -136 c1 -83 6 -137 13 -139 12 -4 11 -11 19 121 l6 107 44 -65 44 -65 -17 -85 c-33 -170 -100 -306 -203 -415 -108 -115 -219 -170 -343 -170 -74 0 -93 7 -81 29 13 24 38 127 46 189 6 43 4 52 -8 52 -11 0 -18 -14 -22 -47 -29 -212 -129 -386 -303 -525 -245 -196 -777 -502 -1082 -624 -77 -30 -108 -37 -165 -38 -63 0 -81 5 -175 48 -186 85 -534 288 -815 476 -254 170 -406 308 -455 413 -26 55 -37 114 -100 555 -135 950 -133 918 -54 1043 20 33 30 39 58 39 19 0 96 20 173 44 181 58 253 79 397 115 l119 30 121 -58 c67 -33 150 -76 186 -98 l64 -38 -3 -93 c-2 -76 0 -92 12 -92 13 0 127 118 266 275 24 28 41 42 38 33 -3 -10 -9 -100 -13 -200 -7 -191 15 -481 37 -503 14 -13 185 164 332 343 113 137 245 318 299 408 18 30 35 54 38 54 3 0 34 -7 70 -15z m-2384 -807 c10 -18 39 -98 65 -177 l48 -144 -26 -20 c-31 -25 -63 -91 -63 -132 0 -41 41 -124 83 -171 50 -56 124 -107 133 -93 4 7 -5 21 -22 33 -108 78 -171 174 -161 247 3 22 18 56 33 76 l28 37 13 -32 c13 -32 33 -43 33 -19 0 7 -16 60 -35 117 -19 57 -35 106 -35 109 0 4 23 -34 51 -82 l51 -88 44 -307 c24 -169 46 -313 49 -319 6 -18 3 -17 -83 26 -130 65 -238 156 -318 267 -134 186 -181 435 -112 587 15 31 32 57 37 57 7 0 11 -41 11 -115 0 -94 3 -117 15 -121 10 -4 15 -21 15 -53 0 -47 13 -81 26 -68 4 3 6 48 5 98 -2 88 -1 94 46 205 26 62 49 114 50 114 1 0 10 -15 19 -32z m-588 -400 c48 -28 129 -78 181 -112 109 -70 113 -65 -69 -96 -110 -19 -154 -32 -139 -43 2 -1 63 -22 134 -46 166 -55 469 -175 635 -251 71 -33 132 -60 137 -60 4 0 21 -25 37 -55 39 -75 201 -229 353 -335 67 -47 122 -87 122 -90 0 -3 -22 -20 -50 -39 -77 -53 -185 -156 -204 -198 -20 -42 -17 -132 10 -348 9 -66 16 -129 18 -139 1 -15 -8 -23 -40 -32 -40 -12 -43 -11 -43 7 0 10 -4 19 -9 19 -10 0 -21 -35 -21 -71 0 -42 -43 -195 -123 -444 -41 -126 -85 -273 -98 -325 -12 -52 -26 -99 -30 -104 -4 -5 -20 1 -35 13 -15 11 -30 21 -35 21 -4 0 -22 -21 -40 -46 l-31 -46 -34 33 -35 34 -24 -30 c-13 -17 -24 -33 -25 -37 0 -17 -26 -6 -57 24 l-32 31 -37 -28 -36 -28 -25 32 c-20 25 -28 29 -43 21 -27 -14 -27 -14 -35 37 -3 27 -29 97 -56 156 -193 417 -284 822 -265 1180 6 111 5 127 -8 127 -14 0 -16 -24 -16 -184 0 -203 16 -355 56 -536 22 -95 80 -291 109 -363 7 -16 1 -17 -66 -12 -303 24 -625 75 -962 152 -139 32 -184 37 -165 17 31 -31 721 -161 957 -180 l83 -7 63 -96 c35 -53 84 -135 110 -184 l47 -87 -31 -6 c-30 -6 -31 -8 -31 -65 0 -61 -3 -65 -42 -50 -74 27 -76 26 -94 -36 -9 -32 -18 -59 -19 -61 -2 -2 -17 4 -34 12 l-31 16 -25 -50 -26 -51 -28 21 c-37 26 -43 25 -71 -5 -27 -29 -21 -30 -180 32 -307 121 -640 317 -879 518 -118 99 -321 312 -321 335 0 4 55 10 123 13 338 15 684 150 985 384 167 130 335 313 437 477 60 97 96 186 131 323 23 90 28 129 27 233 0 151 -19 240 -91 421 -42 104 -64 169 -127 367 -5 14 38 -7 163 -80z m3032 -1602 l0 -134 -82 -25 c-46 -14 -128 -38 -183 -52 -55 -15 -101 -28 -102 -29 -2 -2 -25 -124 -53 -273 -27 -149 -62 -329 -77 -400 l-28 -128 -75 -37 c-181 -89 -349 -65 -491 71 l-60 56 -20 137 c-10 75 -30 200 -44 277 -23 134 -23 142 -7 173 23 44 27 187 10 351 -8 70 -11 127 -8 127 3 0 26 -21 50 -46 177 -182 400 -272 606 -243 91 12 195 48 280 95 64 35 225 155 258 193 11 11 21 21 23 21 1 0 3 -60 3 -134z m837 -461 c62 -20 113 -39 113 -44 0 -5 -16 -43 -35 -86 -29 -63 -39 -76 -53 -70 -9 4 -74 27 -144 52 l-127 45 59 50 c35 29 60 58 60 69 0 10 3 19 7 19 4 0 58 -16 120 -35z m-2662 -27 c4 -29 13 -65 20 -80 7 -15 10 -30 7 -32 -21 -11 -114 -37 -119 -33 -5 5 25 113 47 173 16 42 37 29 45 -28z m-1091 -307 c7 -11 -72 -64 -87 -58 -7 3 -20 19 -30 36 l-18 31 65 0 c36 0 67 -4 70 -9z m52 -116 l33 -75 -37 -19 -37 -19 -42 71 -42 71 42 28 c22 15 43 25 46 23 2 -3 19 -39 37 -80z"
       id="path75"
       style="fill:#f9f9f9" />
    <path
       d="M4412 3204 c-61 -31 -114 -95 -133 -162 -16 -59 -6 -148 24 -208 105 -205 382 -217 485 -20 37 71 38 178 3 250 -52 106 -132 158 -251 164 -66 3 -82 0 -128 -24z m74 -98 c38 -38 43 -70 19 -115 -31 -61 -117 -56 -150 9 -23 44 -19 78 14 111 40 39 74 38 117 -5z"
       id="path77"
       style="fill:#f9f9f9" />
    <path
       d="M2806 2740 c-154 -47 -232 -260 -153 -417 46 -89 116 -133 214 -133 111 0 202 78 238 205 59 202 -113 400 -299 345z m145 -60 c24 -13 49 -61 49 -95 0 -35 -50 -85 -85 -85 -36 0 -95 59 -95 94 0 31 24 82 42 89 23 9 69 7 89 -3z"
       id="path79"
       style="fill:#f9f9f9" />
    <path
       d="M3727 2460 c-32 -10 -61 -21 -64 -24 -8 -8 62 -36 90 -36 27 0 72 31 87 61 10 17 7 19 -22 18 -18 0 -59 -8 -91 -19z"
       id="path81"
       style="fill:#f9f9f9" />
    <path
       d="M4381 2222 c-30 -59 -92 -109 -158 -128 -47 -14 -84 -16 -201 -11 l-144 6 -71 -61 c-99 -83 -184 -123 -262 -122 -33 1 -78 9 -99 18 -54 23 -73 4 -20 -20 26 -12 67 -18 121 -19 l81 -2 52 -64 c60 -75 129 -134 185 -160 45 -21 129 -25 172 -8 41 15 101 77 130 132 30 60 63 186 63 242 0 41 1 43 57 71 56 29 112 90 127 142 12 37 -12 25 -33 -16z m-228 -269 c38 -6 39 -6 33 -42 -4 -20 -23 -70 -44 -111 -48 -96 -97 -134 -175 -134 -35 -1 -67 7 -99 22 -55 27 -148 107 -148 127 0 18 50 55 119 90 90 45 217 65 314 48z"
       id="path83"
       style="fill:#f9f9f9" />
    <path
       d="M6705 4377 c-67 -23 -103 -45 -158 -100 -64 -64 -130 -187 -156 -289 -24 -93 -35 -218 -22 -238 9 -12 11 -10 11 11 0 53 51 224 90 305 128 265 366 339 523 164 24 -27 61 -81 81 -120 21 -39 40 -70 42 -68 2 3 -4 34 -14 70 -33 119 -104 212 -190 251 -57 25 -154 31 -207 14z"
       id="path85"
       style="fill:#f9f9f9" />
    <path
       d="M8532 4334 c-64 -32 -132 -106 -172 -188 -29 -59 -63 -166 -56 -174 3 -2 23 33 47 79 77 149 195 249 293 249 75 0 117 -20 186 -90 36 -36 80 -92 97 -125 39 -75 78 -207 89 -300 l8 -70 8 45 c9 52 -5 182 -28 261 -41 140 -138 268 -236 314 -75 35 -165 34 -236 -1z"
       id="path87"
       style="fill:#f9f9f9" />
    <path
       d="M6792 4228 c-50 -64 -73 -198 -73 -433 0 -195 18 -365 51 -482 11 -40 20 -75 20 -78 0 -3 -47 -5 -104 -5 -92 0 -133 -9 -109 -23 14 -8 443 6 443 14 0 5 -21 9 -46 9 -33 0 -45 4 -41 13 38 99 46 508 14 701 -31 184 -79 296 -128 296 -9 0 -21 -6 -27 -12z m68 -40 c36 -59 18 -202 -28 -216 -21 -7 -52 77 -52 143 0 98 41 136 80 73z m80 -748 c-4 -47 -13 -111 -19 -142 l-12 -58 -45 0 c-52 0 -54 4 -85 142 -22 103 -27 174 -11 190 9 9 12 8 12 -4 0 -9 11 -29 24 -45 21 -25 26 -26 50 -15 14 6 34 28 43 47 l17 36 16 -33 c14 -27 15 -49 10 -118z"
       id="path89"
       style="fill:#f9f9f9" />
    <path
       d="M8520 4188 c-91 -98 -129 -597 -66 -871 l13 -57 -58 0 c-33 0 -59 -4 -59 -10 0 -6 95 -10 265 -10 170 0 265 4 265 10 0 6 -50 10 -131 10 -119 0 -130 1 -125 18 32 104 47 241 47 427 1 250 -29 425 -82 481 -28 30 -43 30 -69 2z m66 -23 c13 -20 16 -40 12 -88 -9 -107 -52 -142 -82 -67 -22 54 -20 108 4 148 24 39 44 41 66 7z m54 -661 c-6 -49 -17 -122 -26 -161 l-15 -73 -54 0 c-54 0 -54 0 -64 38 -6 20 -15 79 -22 130 -9 73 -9 99 0 120 12 25 13 26 23 7 18 -34 51 -65 69 -65 23 0 69 55 76 93 4 22 8 26 14 15 5 -9 4 -55 -1 -104z"
       id="path91"
       style="fill:#f9f9f9" />
    <path
       d="M7652 3273 c-7 -27 -26 -65 -42 -85 l-30 -36 19 -44 c11 -24 25 -70 32 -103 14 -69 14 -69 27 -61 11 7 -8 106 -33 168 -13 33 -13 38 6 62 26 33 49 89 49 121 0 40 -15 29 -28 -22z"
       id="path93"
       style="fill:#f9f9f9" />
    <path
       d="M8635 3088 c-57 -19 -185 -81 -185 -90 0 -13 10 -10 95 27 44 19 85 35 91 35 7 0 4 -19 -7 -52 -10 -29 -18 -63 -19 -75 0 -23 14 -31 25 -14 3 5 42 24 88 41 97 38 99 39 92 50 -6 9 -91 -17 -143 -44 -40 -20 -40 -12 -7 69 14 33 25 61 25 63 0 5 -26 0 -55 -10z"
       id="path95"
       style="fill:#f9f9f9" />
    <path
       d="M6714 3054 c-84 -51 -130 -87 -115 -92 7 -2 44 17 83 43 38 25 72 44 74 42 3 -2 1 -29 -4 -59 -5 -30 -7 -59 -5 -65 3 -7 27 3 61 25 32 20 76 46 100 56 23 10 42 23 42 27 0 21 -23 15 -95 -26 -43 -25 -80 -44 -81 -42 -3 3 12 77 22 110 8 26 -16 21 -82 -19z"
       id="path97"
       style="fill:#f9f9f9" />
    <path
       d="M7326 2789 c-146 -8 -277 -25 -287 -37 -6 -6 60 -105 288 -432 106 -151 274 -326 348 -361 73 -34 135 -31 221 10 55 27 93 59 189 155 133 134 228 260 306 411 60 114 102 235 88 250 -12 13 -955 16 -1153 4z m569 -459 c66 -21 178 -74 218 -104 18 -14 18 -15 1 -41 -26 -40 -165 -157 -226 -190 -71 -39 -142 -40 -212 -5 -56 29 -170 137 -240 228 l-47 62 55 26 c127 58 308 68 451 24z"
       id="path99"
       style="fill:#f9f9f9" />
  </g>
</svg>
